<svg id="Layer_1" data-name="Layer 1" xmlns="http://www.w3.org/2000/svg" viewBox="0 0 141.88 163.83"><defs><style>.cls-1{fill:#063c51;}.cls-2{fill:#00a851;}.cls-3{fill:#f6861f;}.cls-4{fill:#00b5a5;}.cls-5{fill:#ec0085;}</style></defs><polygon class="cls-1" points="0 40.96 0 122.88 70.94 163.83 141.88 122.88 141.88 40.96 70.94 0 0 40.96"/><polyline class="cls-2" points="7.91 127.09 3.58 124.59 3.32 124.75"/><polygon class="cls-2" points="8.85 81.92 43.93 61.66 41.83 60.44 41.83 57.88 0.2 81.92 38.85 104.23 3.58 124.59 7.91 127.09 47.5 104.23 8.85 81.92"/><polygon class="cls-3" points="81.09 83.17 81.09 128.47 85.41 128.47 85.41 83.17 85.42 83.17 83.25 81.92 81.09 83.17"/><polygon class="cls-4" points="122.99 56.48 83.26 79.42 83.25 79.42 83.25 81.92 85.42 83.17 122.99 61.48 141.79 72.78 141.79 67.79 122.99 56.48"/><polygon class="cls-5" points="81.09 83.17 83.25 81.92 83.25 79.42 83.25 79.42 46.16 57.95 46.16 14.27 45.44 14.27 41.83 16.36 41.83 60.44 81.09 83.17"/></svg>