<svg id="Layer_1" data-name="Layer 1" xmlns="http://www.w3.org/2000/svg" viewBox="0 0 142.88 164.7"><defs><style>.cls-1{fill:#00a851;}.cls-2{fill:#f6861f;}.cls-3{fill:#00b5a5;}.cls-4{fill:#ec0085;}.cls-5,.cls-6,.cls-7,.cls-8{fill:#fff;stroke-miterlimit:10;}.cls-5{stroke:#00a851;}.cls-6{stroke:#00b5a5;}.cls-7{stroke:#f6861f;}.cls-8{stroke:#ec0085;}</style></defs><polyline class="cls-1" points="8.41 127.53 4.08 125.03 3.82 125.18"/><polygon class="cls-1" points="9.35 82.35 44.43 62.09 42.33 60.88 42.33 58.31 0.7 82.35 39.35 104.66 4.08 125.03 8.41 127.53 48 104.66 9.35 82.35"/><polygon class="cls-2" points="81.59 83.6 81.59 128.91 85.91 128.91 85.91 83.6 85.92 83.6 83.75 82.35 81.59 83.6"/><polygon class="cls-3" points="114.31 56.92 83.76 79.85 83.75 79.85 83.75 82.35 85.42 83.6 114.31 61.91 128.78 73.22 128.78 68.22 114.31 56.92"/><polygon class="cls-4" points="81.59 83.6 83.75 82.35 83.75 79.85 83.75 79.85 46.66 58.38 46.66 14.7 45.94 14.7 42.33 16.79 42.33 60.88 81.59 83.6"/><line class="cls-5" x1="0.5" y1="123.31" x2="0.5" y2="41.39"/><line class="cls-6" x1="71.44" y1="164.27" x2="0.5" y2="123.31"/><line class="cls-7" x1="142.38" y1="123.31" x2="71.44" y2="164.27"/><line class="cls-8" x1="142.38" y1="41.39" x2="71.44" y2="0.43"/><line class="cls-6" x1="142.38" y1="123.31" x2="142.38" y2="41.39"/><line class="cls-6" x1="0.5" y1="41.39" x2="71.44" y2="0.43"/><path class="cls-4" d="M313.36,212l.66-.2a4.15,4.15,0,0,0,2,2.79c1.39.8,2.7.56,3.33-.53s.13-1.93-.54-2.86l-1-1.42a2.91,2.91,0,0,1-.54-3.34c.77-1.32,2.44-1.59,4-.72a4,4,0,0,1,1.91,2.57l-.61.21a3.37,3.37,0,0,0-1.64-2.2c-1.2-.69-2.38-.52-2.95.47s.06,2,.56,2.68l1,1.41c.76,1.05,1.34,2.13.53,3.53s-2.57,1.79-4.34.77A4.61,4.61,0,0,1,313.36,212Z" transform="translate(-228.72 -189.48)"/><path class="cls-4" d="M325.86,208.68l.63.37-4.95,8.59,4.21,2.43-.32.55-4.85-2.8Z" transform="translate(-228.72 -189.48)"/><path class="cls-4" d="M332.33,212.42l.63.37-5.27,9.13-.64-.37Z" transform="translate(-228.72 -189.48)"/><path class="cls-4" d="M335.65,214.34l.67.38.12,8.66v2.43l.05,0c.48-.92.95-1.83,1.46-2.71l3.23-5.6.6.34L336.5,227l-.67-.39-.12-8.66,0-2.42-.06,0c-.47.9-.9,1.75-1.41,2.64L331,223.82l-.6-.35Z" transform="translate(-228.72 -189.48)"/><path class="cls-4" d="M341.25,223.64c1.67-2.9,4.35-3.78,6.77-2.39a3.82,3.82,0,0,1,1.85,2.54l-.62.21a3.11,3.11,0,0,0-1.56-2.16c-2.09-1.21-4.3-.36-5.77,2.17s-1.19,4.89.89,6.09a3.43,3.43,0,0,0,2.44.49l1.65-2.84-2.18-1.26L345,226l2.79,1.61-2.09,3.62a4.17,4.17,0,0,1-3.3-.53C340.08,229.3,339.58,226.54,341.25,223.64Z" transform="translate(-228.72 -189.48)"/><path class="cls-3" d="M358.55,257.69h4.62c2.86,0,5.06,1,5.06,4.08s-2.2,4.29-5.06,4.29H361v5.36h-2.43Zm4.37,6.42c1.88,0,2.91-.78,2.91-2.34s-1-2.13-2.91-2.13H361v4.47Zm-.2,1.3,1.76-1.46,4.29,7.47H366Z" transform="translate(-228.72 -189.48)"/><path class="cls-2" d="M299.73,338.67l.64-.37,5,8.58,4.21-2.42.31.54L305,347.8Z" transform="translate(-228.72 -189.48)"/><path class="cls-2" d="M306.08,335.44a.62.62,0,0,1,.25-.87.61.61,0,0,1,.87.22.64.64,0,0,1-.24.87A.65.65,0,0,1,306.08,335.44Zm1.48,2,.62-.35,3.84,6.65-.61.36Z" transform="translate(-228.72 -189.48)"/><path class="cls-2" d="M310.74,335.62l.52-.3.55.8,0,0a4.41,4.41,0,0,1,1.68-2.31c1.78-1,3.43-.2,4.62,1.86,1.31,2.26.71,4.38-.86,5.29a4,4,0,0,1-2.47.33l.72,1.23,1.4,2.43-.61.36Zm6.76.4c-.94-1.63-2.23-2.52-3.77-1.63a4.05,4.05,0,0,0-1.53,2.35l2.28,3.95a3.76,3.76,0,0,0,2.46-.28C318.29,339.63,318.54,337.83,317.5,336Z" transform="translate(-228.72 -189.48)"/><path class="cls-2" d="M316.8,329.25a.64.64,0,0,1,1.11-.64.62.62,0,0,1-.24.86A.62.62,0,0,1,316.8,329.25Zm1.48,2,.61-.36,3.84,6.66-.61.35Z" transform="translate(-228.72 -189.48)"/><path class="cls-2" d="M322.82,333.09c-1.24-2.14-.66-4.29.93-5.21a3.56,3.56,0,0,1,2.48-.34l-.74-1.2-1.58-2.75.61-.35,5.76,10-.52.3-.57-.82,0,0a3.62,3.62,0,0,1-1.57,2.28C325.92,336,324.12,335.34,322.82,333.09Zm6-1-2.28-3.95a3.19,3.19,0,0,0-2.43.27c-1.32.76-1.6,2.64-.64,4.31s2.49,2.49,3.9,1.67A3.35,3.35,0,0,0,328.81,332.09Z" transform="translate(-228.72 -189.48)"/><path class="cls-2" d="M330.36,328.75c-1.29-2.23-.64-4.31,1-5.24s3.73-.44,5,1.78.62,4.29-1,5.21S331.63,331,330.36,328.75Zm5.33-3.08c-1-1.76-2.71-2.39-4.06-1.62s-1.64,2.57-.63,4.33,2.7,2.36,4,1.58S336.7,327.42,335.69,325.67Z" transform="translate(-228.72 -189.48)"/><path class="cls-2" d="M336.4,320.8l.52-.3.66,1,0,0a3.52,3.52,0,0,1,1.41-2.41,2,2,0,0,1,2.63.29,3.78,3.78,0,0,1,1.47-2.66c1.33-.77,2.47-.32,3.47,1.4l2.46,4.27-.61.36L346,318.54c-.81-1.41-1.67-1.81-2.69-1.22a3.34,3.34,0,0,0-1.28,2.4l2.9,5-.61.35-2.42-4.19c-.81-1.41-1.67-1.81-2.69-1.22a3.41,3.41,0,0,0-1.27,2.4l2.9,5-.62.36Z" transform="translate(-228.72 -189.48)"/><path class="cls-2" d="M346.17,312.29a.65.65,0,0,1,1.12-.64.63.63,0,0,1-.25.86A.62.62,0,0,1,346.17,312.29Zm1.48,2,.61-.36,3.85,6.66-.62.35Z" transform="translate(-228.72 -189.48)"/><path class="cls-2" d="M352.19,316.14c-1.28-2.23-.6-4.33,1-5.26a3.12,3.12,0,0,1,2.42-.31l-.11.64a2.55,2.55,0,0,0-2,.2c-1.37.78-1.72,2.6-.7,4.36s2.65,2.39,4.1,1.55a3.1,3.1,0,0,0,1.34-1.8l.56.25a3.63,3.63,0,0,1-1.62,2.11C355.5,318.87,353.46,318.34,352.19,316.14Z" transform="translate(-228.72 -189.48)"/><path class="cls-2" d="M359.62,315.26l.1-.65a3.51,3.51,0,0,0,2.6-.38,1.6,1.6,0,0,0,.84-2.23c-.49-.83-1.56-.7-2.49-.54-1.21.23-2.56.46-3.22-.67-.55-1-.26-2.21,1.13-3a3.57,3.57,0,0,1,2.3-.41l-.08.63a2.88,2.88,0,0,0-1.94.31c-1,.6-1.16,1.47-.81,2.08s1.39.6,2.36.44c1.26-.21,2.6-.52,3.34.77a2.3,2.3,0,0,1-1.15,3.18A4.43,4.43,0,0,1,359.62,315.26Z" transform="translate(-228.72 -189.48)"/></svg>